<?xml version="1.0" encoding="UTF-8" standalone="no" ?>
<!DOCTYPE svg PUBLIC "-//W3C//DTD SVG 1.1//EN" "http://www.w3.org/Graphics/SVG/1.1/DTD/svg11.dtd">
<svg xmlns="http://www.w3.org/2000/svg" xmlns:xlink="http://www.w3.org/1999/xlink" version="1.1" width="640" height="480" viewBox="0 0 640 480" xml:space="preserve">
<desc>Created with Fabric.js 3.6.3</desc>
<defs>
</defs>
<g transform="matrix(0.93 0 0 0.93 318.01 237.04)" id="Layer_1"  >
<path style="stroke: none; stroke-width: 1; stroke-dasharray: none; stroke-linecap: butt; stroke-dashoffset: 0; stroke-linejoin: miter; stroke-miterlimit: 4; fill: rgb(255,255,0); fill-rule: nonzero; opacity: 1;"  transform=" translate(-292.3, -256)" d="M 196.7 31 l -22.8 52.5 H 140 v 47.2 h 13 l 13.3 84 h -20.7 l 27.4 154.3 l 17.6 -0.2 L 208.2 481 h 167.2 l 1.2 -7.5 L 393 368.9 l 16.7 0.2 L 437 214.8 h -19.8 l 13.2 -84 h 14.2 V 83.5 h -36 L 385.8 31 L 196.7 31 z M 206.6 46.1 h 169.5 l 14.4 33.4 H 192 L 206.6 46.1 z M 155 98.6 h 274.6 v 17.3 H 155 L 155 98.6 z M 163.5 229.8 h 255.7 l -22 124.1 l -106 -1.1 l -105.6 1.1 L 163.5 229.8 z" stroke-linecap="round" />
</g>
</svg>