<svg id="Layer_1" data-name="Layer 1" width="720" height="94" xmlns="http://www.w3.org/2000/svg" viewBox="0 0 1606 94"><path d="M31.29,72.09H20.36L7.47,27.65h8.17L26,66l10.14-38.3h7.91Z"/><path d="M73.24,72.09c-10.22,0-15.11-4-15.11-14.22v-16c0-10.13,4-14.22,14.23-14.22h4.17c8.54,0,12.8,4.88,12.8,13.77V53H65.69v6.66c0,3.56,2.22,5.78,6.67,5.78H86.49v6.67ZM65.69,46.31H82V39.65a5.14,5.14,0,0,0-5.34-5.34H71.47c-4.45,0-5.78,2.22-5.78,5.78Z"/><path d="M105.51,72.09V27.65h7.11v2.13a11.45,11.45,0,0,1,7.11-2.13h4.09c9.33,0,14.22,4,14.22,14.22V72.09h-7.55v-32a5.37,5.37,0,0,0-5.78-5.78h-5.87c-4.44,0-5.77,3.11-5.77,4.89V72.09Z"/><path d="M172.18,31.82h-4.89l-1.78-13.95v-8H174v8Z"/><path d="M218,72.09H204.71V65.42h14.13c3.12,0,4.89-1.33,4.89-4V56.71c0-2.67-1.33-4-3.82-4h-3.29c-8.17,0-12.35-3.29-12.35-11.29V38.85c0-8.27,4.89-11.2,13.33-11.2h11.91v6.66h-12.8c-2.84,0-4.89,1.34-4.89,4v3.2c0,2.85,2.05,4,4.27,4h3c7.91,0,12.18,3.91,12.18,11.47v4C231.29,68.62,226.4,72.09,218,72.09Z"/><path d="M293.6,72.09V27.65h6.67v2a8.12,8.12,0,0,1,5.51-2h.53c4.18,0,7.11,1.24,8.8,3.55a9.62,9.62,0,0,1,7.73-3.55h.54c6.93,0,10.57,2.84,10.57,12.53V72.09h-7.11v-32c0-4.44-.44-6.49-4.17-6.49h-.54c-4,0-4.71,3.82-4.8,5.87V72.09h-7.11v-32c0-5.07-1-6.49-4.09-6.49h-.53c-4,0-4.8,3.11-4.89,5.07V72.09Z"/><path d="M361.24,72.09c-10.22,0-15.11-4-15.11-14.22v-16c0-10.13,4-14.22,14.23-14.22h4.17c8.54,0,12.8,4.88,12.8,13.77V53H353.69v6.66c0,3.56,2.22,5.78,6.67,5.78h14.13v6.67Zm-7.55-25.78H370V39.65a5.14,5.14,0,0,0-5.34-5.34h-5.15c-4.45,0-5.78,2.22-5.78,5.78Z"/><path d="M410,72.09H396.71V65.42h14.13c3.12,0,4.89-1.33,4.89-4V56.71c0-2.67-1.33-4-3.82-4h-3.29c-8.17,0-12.35-3.29-12.35-11.29V38.85c0-8.27,4.89-11.2,13.33-11.2h11.91v6.66h-12.8c-2.84,0-4.89,1.34-4.89,4v3.2c0,2.85,2.05,4,4.27,4h3c7.91,0,12.18,3.91,12.18,11.47v4C423.29,68.62,418.4,72.09,410,72.09Z"/><path d="M458,72.09H444.71V65.42h14.13c3.12,0,4.89-1.33,4.89-4V56.71c0-2.67-1.33-4-3.82-4h-3.29c-8.17,0-12.35-3.29-12.35-11.29V38.85c0-8.27,4.89-11.2,13.33-11.2h11.91v6.66h-12.8c-2.84,0-4.89,1.34-4.89,4v3.2c0,2.85,2.05,4,4.27,4h3c7.91,0,12.18,3.91,12.18,11.47v4C471.29,68.62,466.4,72.09,458,72.09Z"/><path d="M505.24,72.09c-10.22,0-15.11-4-15.11-14.22v-16c0-10.13,4-14.22,14.23-14.22h4.17c8.54,0,12.8,4.88,12.8,13.77V53H497.69v6.66c0,3.56,2.22,5.78,6.67,5.78h14.13v6.67Zm-7.55-25.78H514V39.65a5.14,5.14,0,0,0-5.34-5.34h-5.15c-4.45,0-5.78,2.22-5.78,5.78Z"/><path d="M537.51,72.09V27.65h7.11v2.13a11.45,11.45,0,0,1,7.11-2.13h4.09c9.33,0,14.22,4,14.22,14.22V72.09h-7.55v-32a5.37,5.37,0,0,0-5.78-5.78h-5.87c-4.44,0-5.77,3.11-5.77,4.89V72.09Z"/><path d="M604.44,87.2H586V80.53h19.37c4.45,0,6.4-2,6.4-4.44V73.24c0-2.66-2-4.44-6.4-4.44H590V56.53c-3.92-2.13-5.78-6-5.78-12.44V41.87c0-10.13,4.89-14.22,15.11-14.22H618V44.09c0,9-5.33,14.22-13.33,14.22h-7.11v3.82h6.93c10.23,0,14.85,4,14.85,12V75.2C619.29,83.2,614.67,87.2,604.44,87.2Zm6-41.07V34.31h-12c-4.44,0-6.67,2.22-6.67,5.78v5.78c0,3.55,2.23,5.77,6.67,5.77h6.22C608.8,51.64,610.22,48,610.4,46.13Z"/><path d="M649.24,72.09c-10.22,0-15.11-4-15.11-14.22v-16c0-10.13,4-14.22,14.23-14.22h4.17c8.54,0,12.8,4.88,12.8,13.77V53H641.69v6.66c0,3.56,2.22,5.78,6.67,5.78h14.13v6.67Zm-7.55-25.78H658V39.65a5.14,5.14,0,0,0-5.34-5.34h-5.15c-4.45,0-5.78,2.22-5.78,5.78Z"/><path d="M682.67,72.09V65.42h6.49V34.31h-6.49V27.65h13.6v2.4a10.73,10.73,0,0,1,7.11-2.4h9.15v7.11h-10a5.71,5.71,0,0,0-5.78,5.51V65.42h9.69v6.67Z"/></svg>
