<svg id="Layer_1" data-name="Layer 1" width="720" height="94" xmlns="http://www.w3.org/2000/svg" viewBox="0 0 1606 94"><polygon points="23.03 64.31 11.16 20.61 -0.87 20.61 15.38 76.63 30.17 76.63 46.3 20.61 34.59 20.61 23.03 64.31"/><path d="M84.42,20.61H79.34c-13,0-18.29,5.3-18.29,18.29V58.35c0,12.64,6,18.28,19.37,18.28h17.1V66.53H79.34c-3.24,0-7.11-1-7.11-6V53.4H101v-15C101,26.75,95.25,20.61,84.42,20.61ZM90,36.2v7.1H72.23V36.74c0-4.34,1.69-6,6-6h6.26A5.26,5.26,0,0,1,90,36.2Z"/><path d="M141.9,20.61h-5a15.79,15.79,0,0,0-7.64,1.75V20.61H118.64v56h11.19v-41c0-1.7,1.26-4.94,6-4.94H143c3.77,0,6,2.25,6,6V76.63h11.19V38.9C160.19,26.42,154.38,20.61,141.9,20.61Z"/><polygon points="191.58 9.72 193.86 27.69 201.56 27.69 203.84 9.85 203.84 -1 191.58 -1 191.58 9.72"/><path d="M257.73,42.33h-3.67c-1.26,0-4.19-.38-4.19-3.87V34.57c0-3.48,3.46-3.86,4.95-3.86h16.56V20.61H255.9c-11.74,0-17.21,4.64-17.21,14.61v3.14c0,9.9,5.24,14.72,16,14.72h4c2.52,0,3.64,1.19,3.64,3.86v5.73c0,.95,0,3.86-4.94,3.86H239.23v10.1h17.1c11.26,0,17.21-5,17.21-14.5V57.26C273.54,47.63,267.92,42.33,257.73,42.33Z"/><path d="M384.48,20.61h-.65a12.62,12.62,0,0,0-9.37,3.79c-2.35-2.52-5.95-3.79-10.72-3.79h-.65a11.1,11.1,0,0,0-5.7,1.52V20.61h-10.1v56h10.64V35.05c.15-3.45,1.82-5.2,4.94-5.2h.65c2.76,0,4,.65,4,6.89V76.63h10.64V36c.13-2.81,1.06-6.17,4.84-6.17h.65c3.39,0,4.08,1.16,4.08,6.89V76.63h10.64V36.84C398.34,25.46,394.19,20.61,384.48,20.61Z"/><path d="M434.51,20.61h-5.08c-13,0-18.29,5.3-18.29,18.29V58.35c0,12.64,6,18.28,19.37,18.28h17.1V66.53H429.43c-3.24,0-7.1-1-7.1-6V53.4h28.74v-15C451.07,26.75,445.34,20.61,434.51,20.61ZM440.1,36.2v7.1H422.33V36.74c0-4.34,1.69-6,6-6h6.27A5.25,5.25,0,0,1,440.1,36.2Z"/><path d="M491.13,42.33h-3.67c-1.26,0-4.19-.38-4.19-3.87V34.57c0-3.48,3.46-3.86,4.94-3.86h16.56V20.61H489.29c-11.74,0-17.2,4.64-17.2,14.61v3.14c0,9.9,5.24,14.72,16,14.72h4c2.52,0,3.65,1.19,3.65,3.86v5.73c0,.95,0,3.86-4.94,3.86H472.63v10.1h17.1c11.25,0,17.2-5,17.2-14.5V57.26C506.93,47.63,501.32,42.33,491.13,42.33Z"/><path d="M549.48,42.33h-3.67c-1.26,0-4.19-.38-4.19-3.87V34.57c0-3.48,3.46-3.86,4.94-3.86h16.56V20.61H547.64c-11.74,0-17.2,4.64-17.2,14.61v3.14c0,9.9,5.24,14.72,16,14.72h4c2.52,0,3.65,1.19,3.65,3.86v5.73c0,.95,0,3.86-4.94,3.86H531v10.1h17.1c11.25,0,17.2-5,17.2-14.5V57.26C565.28,47.63,559.67,42.33,549.48,42.33Z"/><path d="M609.56,20.61h-5.08c-13,0-18.29,5.3-18.29,18.29V58.35c0,12.64,6,18.28,19.37,18.28h17.1V66.53H604.48c-3.24,0-7.1-1-7.1-6V53.4h28.74v-15C626.12,26.75,620.39,20.61,609.56,20.61Zm-6.16,10.1h6.27a5.25,5.25,0,0,1,5.48,5.49v7.1H597.38V36.74C597.38,32.4,599.06,30.71,603.4,30.71Z"/><path d="M667,20.61h-5a15.79,15.79,0,0,0-7.64,1.75V20.61H643.78v56H655v-41c0-1.7,1.26-4.94,6-4.94h7.13c3.77,0,6,2.25,6,6V76.63h11.18V38.9C685.33,26.42,679.52,20.61,667,20.61Z"/><path d="M726.15,62.53h-7.43V59.89h7.64c10.62,0,17.21-7,17.21-18.29v-21H719.88c-13.39,0-19.37,5.64-19.37,18.29v2.7c0,7.83,2.24,12.84,7,15.7V72.63h19.69c4.5,0,6.78,1.49,6.78,4.41v3.45c0,2.76-2.54,4.41-6.78,4.41H702.67V95h23.48c12.81,0,19-5.1,19-15.59V78.12C745.19,67.63,739,62.53,726.15,62.53ZM732.39,44c-.21,2-1.73,5.75-6,5.75H718.8c-3.24,0-7.1-1-7.1-6v-7c0-5,3.86-6,7.1-6h13.59Z"/><path d="M784.61,20.61h-5.08c-13,0-18.29,5.3-18.29,18.29V58.35c0,12.64,6,18.28,19.37,18.28h17.1V66.53H779.53c-3.24,0-7.11-1-7.11-6V53.4h28.74v-15C801.16,26.75,795.44,20.61,784.61,20.61ZM790.2,36.2v7.1H772.42V36.74c0-4.34,1.69-6,6-6h6.26A5.26,5.26,0,0,1,790.2,36.2Z"/><path d="M845.33,31.25h13.21V20.61H846.41a14.37,14.37,0,0,0-7.64,2v-2H820.24v10.1h7.88V66.53h-7.88v10.1h30.85V66.53H839.31V37A6,6,0,0,1,845.33,31.25Z"/></svg>
